<?xml version="1.0" standalone="no"?>
<!DOCTYPE svg PUBLIC "-//W3C//DTD SVG 20010904//EN"
 "http://www.w3.org/TR/2001/REC-SVG-20010904/DTD/svg10.dtd">
<svg version="1.0" xmlns="http://www.w3.org/2000/svg"
 width="512.000000pt" height="512.000000pt" viewBox="0 0 512.000000 512.000000"
 preserveAspectRatio="xMidYMid meet">
<metadata>
Created by potrace 1.14, written by Peter Selinger 2001-2017
</metadata>
<g transform="translate(0.000000,512.000000) scale(0.100000,-0.100000)"
fill="#000000" stroke="none">
<path d="M3727 3874 c-1 -1 -49 -4 -106 -8 -58 -4 -107 -9 -111 -11 -3 -2 -19
-6 -34 -9 -220 -40 -447 -194 -585 -399 -38 -56 -120 -226 -132 -271 -4 -17
-14 -56 -22 -86 -14 -51 -28 -128 -43 -240 -7 -56 -8 -531 0 -585 3 -22 8 -65
12 -95 3 -30 8 -58 10 -61 2 -3 6 -21 9 -40 19 -109 84 -273 153 -386 59 -99
178 -222 276 -287 114 -77 228 -119 381 -143 55 -9 247 -9 325 0 436 51 732
351 794 805 l4 32 -168 0 c-187 0 -170 7 -186 -75 -14 -78 -37 -142 -77 -224
-65 -131 -190 -221 -351 -255 -68 -14 -284 -16 -335 -3 -120 31 -210 85 -291
174 -80 88 -158 245 -186 373 -4 19 -8 37 -9 40 -1 3 -5 30 -9 60 -4 30 -10
69 -13 85 -6 36 -5 524 1 580 7 69 18 140 22 146 2 3 6 21 9 39 9 50 43 147
72 204 122 242 318 359 598 357 311 -2 497 -161 565 -481 6 -30 13 -64 15 -76
4 -20 11 -20 174 -20 l170 0 -4 25 c-3 14 -7 41 -10 59 -13 80 -17 101 -37
162 -23 72 -95 223 -109 228 -5 2 -9 8 -9 14 0 19 -91 119 -159 175 -73 60
-215 132 -306 156 -77 20 -287 49 -298 41z"/>
<path d="M469 3835 c-1 0 -2 -62 -3 -137 l-2 -138 51 0 c27 -1 212 -1 411 -1
l360 -1 0 -1139 c-1 -1006 1 -1139 14 -1140 56 -4 311 -1 316 3 3 3 5 517 5
1141 l-1 1135 383 1 c210 0 396 0 412 1 l30 0 1 135 c0 74 -2 136 -6 136 -4 2
-1968 6 -1971 4z"/>
</g>
</svg>
